<svg xmlns="http://www.w3.org/2000/svg" width="24" height="24" viewBox="0 0 24 24" fill="#181717">
    <path d="M12 0.3c-6.6 0-12 5.4-12 12 0 5.3 3.4 9.7 8.1 11.2 0.6 0.1 0.8-0.3 0.8-0.6v-2.3c-3.3 0.6-4-1.4-4-1.4-0.6-1.5-1.4-1.9-1.4-1.9-1.1-0.8 0-0.8 0-0.8 1.1 0.1 1.7 1.1 1.7 1.1 1 1.7 2.6 1.2 3.3 0.9 0.1-0.7 0.4-1.2 0.7-1.4-2.7-0.3-5.5-1.4-5.5-6.1 0-1.3 0.5-2.3 1.2-3.2-0.1-0.3-0.5-1.4 0.1-3 0 0 1-0.3 3.3 1.2 0.9-0.2 1.9-0.3 2.8-0.3s1.9 0.1 2.8 0.3c2.3-1.5 3.3-1.2 3.3-1.2 0.6 1.6 0.2 2.7 0.1 3 0.8 0.9 1.2 1.9 1.2 3.2 0 4.7-2.8 5.8-5.5 6.1 0.5 0.4 0.8 1.1 0.8 2.2v3.3c0 0.3 0.2 0.7 0.8 0.6 4.7-1.5 8.1-5.9 8.1-11.2 0-6.6-5.4-12-12-12z"/>
</svg>
