<svg xmlns="http://www.w3.org/2000/svg" width="24" height="24" viewBox="0 0 24 24" fill="#C13584">
    <path d="M12 2.2c3.2 0 3.6 0 4.9.1 1.3.1 2.2.3 2.7.5.6.2 1 .5 1.4 1s.7.8 1 1.4c.2.5.4 1.4.5 2.7.1 1.3.1 1.7.1 4.9s0 3.6-.1 4.9c-.1 1.3-.3 2.2-.5 2.7-.2.6-.5 1-.9 1.4-.4.4-.8.7-1.4.9-.5.2-1.4.4-2.7.5-1.3.1-1.7.1-4.9.1s-3.6 0-4.9-.1c-1.3-.1-2.2-.3-2.7-.5-.6-.2-1-.5-1.4-.9-.4-.4-.7-.8-.9-1.4-.2-.5-.4-1.4-.5-2.7C2.2 15.6 2.2 15.2 2.2 12s0-3.6.1-4.9c.1-1.3.3-2.2.5-2.7.2-.6.5-1 .9-1.4.4-.4.8-.7 1.4-.9.5-.2 1.4-.4 2.7-.5C8.4 2.2 8.8 2.2 12 2.2m0-2.2C8.7 0 8.3 0 7 0 5.6 0 4.4.2 3.4.5c-.9.3-1.7.8-2.4 1.5-.7.7-1.2 1.5-1.5 2.4C-.2 5.6 0 6.8 0 7.9 0 8.3 0 8.7 0 12c0 3.3 0 3.7.1 5 .1 1.3.3 2.2.5 2.7.3.9.8 1.7 1.5 2.4.7.7 1.5 1.2 2.4 1.5.5.2 1.4.4 2.7.5 1.3.1 1.7.1 5 .1 3.3 0 3.7 0 5-.1 1.3-.1 2.2-.3 2.7-.5.9-.3 1.7-.8 2.4-1.5.7-.7 1.2-1.5 1.5-2.4.2-.5.4-1.4.5-2.7.1-1.3.1-1.7.1-5 0-3.3 0-3.7-.1-5-.1-1.3-.3-2.2-.5-2.7-.3-.9-.8-1.7-1.5-2.4-.7-.7-1.5-1.2-2.4-1.5C16.2.2 15.3 0 14 0c-1.3 0-1.7 0-5 0zm0 5.8c-3.4 0-6.2 2.8-6.2 6.2S8.6 18.2 12 18.2s6.2-2.8 6.2-6.2S15.4 5.8 12 5.8zm0 10.3c-2.3 0-4.1-1.8-4.1-4.1S9.7 7.9 12 7.9s4.1 1.8 4.1 4.1-1.8 4.1-4.1 4.1zm6.6-10.9c-.8 0-1.4-.6-1.4-1.4s.6-1.4 1.4-1.4 1.4.6 1.4 1.4-.6 1.4-1.4 1.4z"/>
</svg>
