<svg xmlns="http://www.w3.org/2000/svg" width="24" height="24" viewBox="0 0 24 24" fill="#1DA1F2">
    <path d="M23.444 4.834c-.834.37-1.734.618-2.675.732a4.728 4.728 0 0 0 2.056-2.614 9.548 9.548 0 0 1-3.004 1.148 4.716 4.716 0 0 0-8.026 4.294 13.378 13.378 0 0 1-9.722-4.93 4.717 4.717 0 0 0 1.46 6.3 4.708 4.708 0 0 1-2.136-.592v.06a4.716 4.716 0 0 0 3.787 4.62 4.712 4.712 0 0 1-2.131.08 4.72 4.72 0 0 0 4.405 3.277A9.49 9.49 0 0 1 1.112 19a13.342 13.342 0 0 0 7.234 2.12c8.683 0 13.432-7.198 13.432-13.432 0-.205-.004-.41-.014-.614a9.605 9.605 0 0 0 2.38-2.44z"/>
</svg>
